<svg width="36" height="32" viewBox="0 0 36 32" fill="none" xmlns="http://www.w3.org/2000/svg">
<path d="M29 1C29 0.447715 28.5523 0 28 0C27.4477 0 27 0.447715 27 1L29 1ZM27.2929 31.7071C27.6834 32.0976 28.3166 32.0976 28.7071 31.7071L35.0711 25.3431C35.4616 24.9526 35.4616 24.3195 35.0711 23.9289C34.6805 23.5384 34.0474 23.5384 33.6569 23.9289L28 29.5858L22.3431 23.9289C21.9526 23.5384 21.3195 23.5384 20.9289 23.9289C20.5384 24.3195 20.5384 24.9526 20.9289 25.3431L27.2929 31.7071ZM27 1L27 31H29V1L27 1Z" fill="rgb(229 229 229)" fill-opacity="0.30"/>
<path d="M9 1C9 0.447715 8.55228 0 8 0C7.44772 0 7 0.447715 7 1L9 1ZM7.29289 31.7071C7.68342 32.0976 8.31658 32.0976 8.70711 31.7071L15.0711 25.3431C15.4616 24.9526 15.4616 24.3195 15.0711 23.9289C14.6805 23.5384 14.0474 23.5384 13.6569 23.9289L8 29.5858L2.34315 23.9289C1.95262 23.5384 1.31946 23.5384 0.928932 23.9289C0.538408 24.3195 0.538408 24.9526 0.928932 25.3431L7.29289 31.7071ZM7 1L7 31H9L9 1L7 1Z" fill="rgb(229 229 229)" fill-opacity="0.30"/>
</svg>
