<svg width="32" height="36" viewBox="0 0 32 36" fill="none" xmlns="http://www.w3.org/2000/svg">
<path d="M1 7C0.447715 7 0 7.44772 0 8C0 8.55228 0.447715 9 1 9V7ZM31.7071 8.70711C32.0976 8.31658 32.0976 7.68342 31.7071 7.29289L25.3431 0.928932C24.9526 0.538408 24.3195 0.538408 23.9289 0.928932C23.5384 1.31946 23.5384 1.95262 23.9289 2.34315L29.5858 8L23.9289 13.6569C23.5384 14.0474 23.5384 14.6805 23.9289 15.0711C24.3195 15.4616 24.9526 15.4616 25.3431 15.0711L31.7071 8.70711ZM1 9H31V7H1V9Z" fill="rgb(229 229 229)" fill-opacity="0.30"/>
<path d="M1 27C0.447715 27 0 27.4477 0 28C0 28.5523 0.447715 29 1 29V27ZM31.7071 28.7071C32.0976 28.3166 32.0976 27.6834 31.7071 27.2929L25.3431 20.9289C24.9526 20.5384 24.3195 20.5384 23.9289 20.9289C23.5384 21.3195 23.5384 21.9526 23.9289 22.3431L29.5858 28L23.9289 33.6569C23.5384 34.0474 23.5384 34.6805 23.9289 35.0711C24.3195 35.4616 24.9526 35.4616 25.3431 35.0711L31.7071 28.7071ZM1 29H31V27H1V29Z" fill="rgb(229 229 229)" fill-opacity="0.30"/>
</svg>
